{"title":"Scooby Doo 13 Spooky Tales From Around The World DVDRip XViD UNi","uid":7280342,"size":1595581192,"categoryP":"video","categoryS":"movies","magnet":"?xt=urn:btih:b75313d3dda9f7ba84c42b5adedf196045eadb06&amp;dn=Scooby+Doo+13+Spooky+Tales+From+Around+The+World+DVDRip+XViD+UNi&amp;tr=udp%3A%2F%2Ftracker.openbittorrent.com%3A80&amp;tr=udp%3A%2F%2Fopen.demonii.com%3A1337&amp;tr=udp%3A%2F%2Ftracker.coppersurfer.tk%3A6969&amp;tr=udp%3A%2F%2Fexodus.desync.com%3A6969","seeders":1,"leechers":0,"uploader":"srkfan","files":5,"time":1337419055,"description":"Poster : http://img163.imageshack.us/img163/1303/scoobydoo13spookytalesf.jpg\n\nFormat : AVI\nFormat/Info : Audio Video Interleave\nFile size : 1.47 GiB\nDuration : 2h 24mn\nOverall bit rate : 1 458 Kbps\nWriting application : VirtualDubMod 1.5.10.2 (build 2540/release)\nWriting library : VirtualDubMod build 2540/release\n\nVideo\nID : 0\nFormat : MPEG-4 Visual\nFormat profile : Advanced Simple@L5\nFormat settings, BVOP : 2\nFormat settings, QPel : No\nFormat settings, GMC : No warppoints\nFormat settings, Matrix : Default (H.263)\nMuxing mode : Packed bitstream\nCodec ID : XVID\nCodec ID/Hint : XviD\nDuration : 2h 24mn\nBit rate : 1 263 Kbps\nWidth : 720 pixels\nHeight : 400 pixels\nDisplay aspect ratio : 3:2\nOriginal display aspect ratio : 16:9\nFrame rate : 23.976 fps\nColor space : YUV\nChroma subsampling : 4:2:0\nBit depth : 8 bits\nScan type : Progressive\nCompression mode : Lossy\nBits/(Pixel*Frame) : 0.183\nStream size : 1.28 GiB (87%)\nWriting library : XviD 64\n\nAudio\nID : 1\nFormat : AC-3\nFormat/Info : Audio Coding 3\nMode extension : CM (complete main)\nFormat settings, Endianness : Big\nCodec ID : 2000\nDuration : 2h 20mn\nBit rate mode : Constant\nBit rate : 192 Kbps\nChannel(s) : 1 channel\nChannel positions : Front: C\nSampling rate : 48.0 KHz\nBit depth : 16 bits\nCompression mode : Lossy\nStream size : 193 MiB (13%)\nAlignment : Aligned on interleaves\nInterleave, duration : 43 ms (1.03 video frame)\nInterleave, preload duration : 512 ms\n\n\n\n\n\n\n &lt;a href=&quot;\nhttp://www.amazon.com/Scooby-Doo-Spooky-Tales-Around-World/dp/B006Z94HWM&quot; rel=&quot;nofollow&quot; target=&quot;_NEW&quot;&gt;\nhttp://www.amazon.com/Scooby-Doo-Spooky-Tales-Around-World/dp/B006Z94HWM&lt;/a&gt;\n\n\n\n\nNobody vacations like Scooby-Doo and the gang. This is arm-scare travel at its very best! And with 13 hair-\n\nraising vacation destinations on two DVDs, that's hours of family fun. Get ready to get shipwrecked in the\n\nBermuda Triangle with scary skeleton scuba divers and chased through the canals of Venice by the Ghostly\n\nGondolier, who even kidnaps Daphne! Hop aboard a haunted Aztec barge, but not before Scooby-Doo wows a\n\nvengeful god with his best Mexican hat dance - to say nothing of his airplane cha-cha over the headhunter-\n\nhappy jungles of Brazil. Along the way you can bet the Mystery Inc. gang will get to the bottom of each\n\nmystery with plenty of zoinks! (the same in every language), plenty of hijinks, and a whole lot of\n\ninternational cuisine - leaning tower of pizza anyone?\n\n\n\n\n\nSource Used\n\n\n\nScooby.Doo.13.Spooky.Tales.From.Around.The.World.D1.DVDR.NTSC.R1.Latino_2012............Thanks\n\n\n\n\nEnjoy\n\n[img]http://img195.imageshack.us/img195/421/vlcsnap2012051906h56m15.png[/img]\n[img]http://img855.imageshack.us/img855/7578/vlcsnap2012051906h56m07.png[/img]\n[img]http://img210.imageshack.us/img210/6602/vlcsnap2012051906h56m25.png[/img]\n[img]http://img405.imageshack.us/img405/1750/vlcsnap2012051906h56m01.png[/img]","torrent":{"xt":"urn:btih:b75313d3dda9f7ba84c42b5adedf196045eadb06","amp;dn":"Scooby+Doo+13+Spooky+Tales+From+Around+The+World+DVDRip+XViD+UNi","amp;tr":["udp%3A%2F%2Ftracker.openbittorrent.com%3A80","udp%3A%2F%2Fopen.demonii.com%3A1337","udp%3A%2F%2Ftracker.coppersurfer.tk%3A6969","udp%3A%2F%2Fexodus.desync.com%3A6969"],"infoHash":"b75313d3dda9f7ba84c42b5adedf196045eadb06","infoHashBuffer":{"type":"Buffer","data":[183,83,19,211,221,169,247,186,132,196,43,90,222,223,25,96,69,234,219,6]},"announce":[],"urlList":[]}}